Coordinates
version=1
nRows=41
nColumns=17
inDegrees=yes

Units are S.I. units (second, meters, Newtons, ...)
If the header above contains a line with 'inDegrees', this indicates whether rotational values are in degrees (yes) or radians (no).

endheader
time	pelvis_tilt	pelvis_tx	pelvis_ty	hip_flexion_l	hip_flexion_r	knee_angle_l	knee_angle_r	ankle_angle_l	ankle_angle_r	lumbar_extension	FC_flexion	FC_adduction	FC_rotation	FC_tx	FC_ty	FC_tz
      1.40000000	    101.31017341	     -0.32973218	      1.03501114	    -11.84055044	     78.97913313	     -1.19636829	   -106.63503374	    -34.87669636	    -31.62235832	    -27.46260068	    -10.11869811	     15.41107065	    106.58857809	     -0.13474977	     -0.08920262	     -0.23235981
      1.41000000	    101.31951323	     -0.32972684	      1.03505385	    -11.85402811	     78.96292273	     -1.19577711	   -106.54216612	    -34.86681922	    -31.60497298	    -27.46238192	    -10.32249105	     15.08950087	    106.64249528	     -0.13491726	     -0.09177438	     -0.23195798
      1.42000000	    101.31192949	     -0.32972938	      1.03499597	    -11.84722903	     78.93962312	     -1.18746479	   -106.40806905	    -34.85858678	    -31.59545129	    -27.47741038	    -10.37593558	     15.12217394	    106.62970436	     -0.13488909	     -0.09143550	     -0.23204194
      1.43000000	    101.31348945	     -0.32972432	      1.03498292	    -11.84697169	     78.91755985	     -1.18838092	   -106.31367516	    -34.85855074	    -31.58951836	    -27.46821090	    -10.39816498	     15.15102325	    106.61114921	     -0.13481751	     -0.09117940	     -0.23212870
      1.44000000	    101.30744821	     -0.32972844	      1.03500057	    -11.84263523	     78.91515508	     -1.18799231	   -106.21769106	    -34.85805357	    -31.58699927	    -27.46067659	    -10.45482169	     15.16216248	    106.61360788	     -0.13471682	     -0.09099229	     -0.23226117
      1.45000000	    101.29862374	     -0.32972449	      1.03500857	    -11.83701858	     78.90407004	     -1.18508651	   -106.08238038	    -34.84993551	    -31.76106502	    -27.44004166	    -10.53101164	     15.18275178	    106.61367803	     -0.13482080	     -0.09072965	     -0.23236835
      1.46000000	    101.28467207	     -0.32972801	      1.03493552	    -11.82012615	     78.90534596	     -1.17772970	   -105.94831244	    -34.84419860	    -31.73884893	    -27.44969765	    -10.59783865	     15.19853978	    106.59160860	     -0.13479229	     -0.09047721	     -0.23250420
      1.47000000	    101.29042515	     -0.32972016	      1.03494080	    -11.82358033	     78.89880686	     -1.18090565	   -105.87353164	    -34.84271998	    -31.73445694	    -27.44369232	    -10.60761517	     15.23087393	    106.55990549	     -0.13476405	     -0.09032509	     -0.23260903
      1.48000000	    101.27678321	     -0.32973595	      1.03493709	    -11.78765978	     78.88490370	     -1.21796046	   -105.74902765	    -34.89223723	    -31.60989653	    -27.43096047	     -9.96681378	     15.29051685	    106.36227614	     -0.13461538	     -0.08980521	     -0.23216711
      1.49000000	    101.25242967	     -0.32971859	      1.03494307	    -11.76954310	     78.90393501	     -1.20054318	   -105.64879461	    -34.88958223	    -31.64219277	    -27.40980918	     -9.27917870	     15.37622884	    106.14375544	     -0.13457302	     -0.08948855	     -0.23161789
      1.50000000	    101.25222219	     -0.32972275	      1.03496040	    -11.77373076	     78.89632005	     -1.19661036	   -105.54212312	    -34.88543439	    -31.66164335	    -27.40880043	     -9.21800433	     15.36286645	    106.07854586	     -0.13445588	     -0.08948869	     -0.23157052
      1.51000000	    101.24065769	     -0.32970305	      1.03492002	    -11.76698650	     78.89997089	     -1.18284237	   -105.40607246	    -34.87354542	    -31.69465270	    -27.39722921	     -9.15702997	     15.32948948	    106.04974097	     -0.13444640	     -0.08948209	     -0.23157612
      1.52000000	    101.24038476	     -0.32970274	      1.03487351	    -11.76566835	     78.89792425	     -1.18145952	   -105.30772639	    -34.86852596	    -31.69986267	    -27.40136955	     -9.17891910	     15.29356857	    106.06127441	     -0.13427261	     -0.08950586	     -0.23167312
      1.53000000	    101.17897028	     -0.32968857	      1.03485368	    -11.69393975	     78.93736432	     -1.18151401	   -105.14855107	    -34.88356978	    -31.76967859	    -27.33976104	     -9.29138351	     15.27107415	    106.06463960	     -0.13417991	     -0.08943152	     -0.23178826
      1.54000000	    101.18857549	     -0.32968702	      1.03491350	    -11.70851476	     78.93657241	     -1.18750892	   -105.07081093	    -34.88137083	    -31.76501742	    -27.33751941	     -9.29576257	     15.28556436	    106.03230918	     -0.13418251	     -0.08960701	     -0.23191292
      1.55000000	    101.17717208	     -0.32968696	      1.03481424	    -11.68788102	     78.92925547	     -1.18170967	   -104.93791780	    -34.88501980	    -31.74150077	    -27.35167582	     -9.33644214	     15.18555745	    106.00675222	     -0.13405608	     -0.08946260	     -0.23167233
      1.56000000	    101.17026677	     -0.32966905	      1.03481308	    -11.67929714	     78.94814396	     -1.18159430	   -104.83926846	    -34.89144036	    -31.72931452	    -27.33487160	     -9.09797368	     15.31349979	    105.92689357	     -0.13428953	     -0.08985216	     -0.23198028
      1.57000000	    101.15896592	     -0.32966460	      1.03480177	    -11.66859790	     78.95410343	     -1.17952043	   -104.68295472	    -34.89272038	    -31.78242280	    -27.32865532	     -8.92260104	     15.44851414	    105.84576676	     -0.13459262	     -0.09011466	     -0.23234022
      1.58000000	    101.16745066	     -0.32968109	      1.03474570	    -11.67264947	     78.95553922	     -1.18165447	   -104.59061229	    -34.89544067	    -31.75094582	    -27.34108780	     -9.10505246	     15.36920745	    105.87311398	     -0.13448879	     -0.09006210	     -0.23225826
      1.59000000	    100.88263280	     -0.32950841	      1.03438461	    -11.37412347	     79.27596207	     -1.11165690	   -104.38830807	    -34.92215628	    -31.86268617	    -27.08544410	     -9.42223900	     15.29287471	    105.92595959	     -0.13401912	     -0.08997398	     -0.23217630
      1.60000000	    101.16339816	     -0.32965448	      1.03478542	    -11.63302332	     78.97521839	     -1.25108202	   -104.38193441	    -34.93909840	    -31.83576374	    -27.32967126	     -8.83753531	     15.59284873	    105.82361020	     -0.13480630	     -0.09050809	     -0.23288078
      1.61000000	    100.88955183	     -0.32951602	      1.03435831	    -11.38625682	     79.26559710	     -1.10174079	   -104.14823730	    -34.92782995	    -31.90272625	    -27.09391054	     -9.15103662	     15.45378629	    105.88474342	     -0.13414005	     -0.09023878	     -0.23250711
      1.62000000	    101.12216421	     -0.32962759	      1.03465014	    -11.59559063	     79.02559625	     -1.22483829	   -104.08924870	    -34.91913566	    -32.04292795	    -27.29795983	     -9.27939975	     15.30525138	    105.95615342	     -0.13428760	     -0.09000314	     -0.23216083
      1.63000000	    101.12655475	     -0.32964275	      1.03465114	    -11.63522398	     79.04836437	     -1.15868124	   -103.98391194	    -34.88869550	    -32.26454008	    -27.30307809	     -9.23840936	     15.37140246	    105.90668896	     -0.13428162	     -0.09021296	     -0.23230448
      1.64000000	    101.10634257	     -0.32963394	      1.03462213	    -11.60206730	     79.05151855	     -1.17424287	   -103.84725545	    -34.90377383	    -31.94009899	    -27.28875095	     -9.26559723	     15.36456629	    105.88169259	     -0.13413601	     -0.09005678	     -0.23231294
      1.65000000	    101.11469762	     -0.32965467	      1.03462795	    -11.60850761	     79.06247493	     -1.17735907	   -103.75060783	    -34.90437876	    -31.93157310	    -27.29730130	     -9.24881492	     15.37127354	    105.85045331	     -0.13408778	     -0.09014154	     -0.23231311
      1.66000000	    101.12076827	     -0.32966314	      1.03463897	    -11.61509967	     79.06870947	     -1.18066580	   -103.62335463	    -34.90297459	    -31.97531817	    -27.31002516	     -9.28745936	     15.36383374	    105.84707561	     -0.13407616	     -0.09019636	     -0.23237430
      1.67000000	    101.10603248	     -0.32966203	      1.03465220	    -11.60582408	     79.09556469	     -1.17333530	   -103.48530974	    -34.91492466	    -32.25797708	    -27.27825579	     -9.23714333	     15.43264582	    105.79976861	     -0.13410949	     -0.09027114	     -0.23255828
      1.68000000	    101.09739532	     -0.32964118	      1.03461906	    -11.59484939	     79.10787294	     -1.17396322	   -103.35083612	    -34.90728630	    -31.94986702	    -27.28598479	     -9.23901345	     15.38150861	    105.77576911	     -0.13399646	     -0.09018945	     -0.23233090
      1.69000000	    101.09359866	     -0.32964597	      1.03459233	    -11.57063533	     78.92124998	     -1.20541471	   -103.36721297	    -34.92206378	    -26.05373042	    -27.28448345	     -8.87186146	     15.33437840	    105.75388649	     -0.13316328	     -0.08903713	     -0.23210252
      1.70000000	    101.09471488	     -0.32966176	      1.03456620	    -11.57793393	     78.93667614	     -1.19827098	   -103.23069080	    -34.91642948	    -26.05651349	    -27.29220611	     -8.85370872	     15.47616286	    105.73555463	     -0.13343079	     -0.08922020	     -0.23272004
      1.71000000	    101.09746589	     -0.32966443	      1.03458241	    -11.58826697	     78.94772595	     -1.18633142	   -103.10474367	    -34.90953391	    -26.06651769	    -27.28934825	     -8.79429930	     15.52451851	    105.68600071	     -0.13346003	     -0.08928252	     -0.23275557
      1.72000000	    101.09732023	     -0.32969028	      1.03458127	    -11.59017946	     78.95734891	     -1.17891424	   -102.97502798	    -34.90371543	    -26.07239786	    -27.29467009	     -8.81809972	     15.43886404	    105.67531351	     -0.13316180	     -0.08920148	     -0.23218453
      1.73000000	    101.10017341	     -0.32969450	      1.03456197	    -11.59885054	     78.97601471	     -1.17485948	   -102.85231404	    -34.89616601	    -26.07846005	    -27.30100053	     -8.79932275	     15.47544171	    105.61319325	     -0.13306470	     -0.08932704	     -0.23224756
      1.74000000	    101.09294123	     -0.32965728	      1.03457669	    -11.61458026	     78.99825067	     -1.14092330	   -102.71009586	    -34.84633887	    -26.13218434	    -27.27853597	     -8.78976231	     15.52362521	    105.53662817	     -0.13317868	     -0.08942135	     -0.23224577
      1.75000000	    101.09957876	     -0.32966737	      1.03457634	    -11.61399508	     79.01896796	     -1.15005511	   -102.58817357	    -34.84860201	    -26.14194580	    -27.29144106	     -8.71066838	     15.69470568	    105.49482554	     -0.13335990	     -0.08972967	     -0.23288411
      1.76000000	    101.09146528	     -0.32967617	      1.03452533	    -11.59977792	     79.02734566	     -1.14972216	   -102.43253544	    -34.84893652	    -26.13964118	    -27.29947127	     -8.74716279	     15.65440736	    105.43852629	     -0.13327392	     -0.08960071	     -0.23263777
      1.77000000	    101.09209346	     -0.32967625	      1.03448510	    -11.58806598	     79.03754005	     -1.16009936	   -102.31306238	    -34.85407167	    -26.11916600	    -27.30317450	     -8.79781712	     15.59281899	    105.39185582	     -0.13305622	     -0.08958950	     -0.23241546
      1.78000000	    101.08790186	     -0.32969385	      1.03446560	    -11.57558247	     79.04652179	     -1.17129447	   -102.15120523	    -34.87319764	    -26.11959220	    -27.29825797	     -8.67313766	     15.82646285	    105.29354902	     -0.13339505	     -0.08969067	     -0.23313404
      1.79000000	    101.05541209	     -0.32969280	      1.03441564	    -11.52936450	     79.08102738	     -1.17776932	   -102.00426232	    -34.89714354	    -26.09717200	    -27.26431709	     -8.60847646	     15.86762472	    105.23063892	     -0.13337103	     -0.08967244	     -0.23319244
      1.80000000	    101.06060444	     -0.32968147	      1.03441314	    -11.53653929	     79.09735709	     -1.17877217	   -101.86929232	    -34.89411865	    -26.09217539	    -27.26791342	     -8.62777473	     15.89457579	    105.18554610	     -0.13341100	     -0.08978942	     -0.23327369
